<svg xmlns="http://www.w3.org/2000/svg" viewBox="0 0 200 50" width="200" height="50">
  <!-- Binance Logo with Animation -->
  <style>
    .binance-logo {
      fill: #F0B90B;
    }
    
    .pattern-circle {
      fill: #F0B90B;
      opacity: 0.2;
    }
    
    .pattern-square {
      fill: #F0B90B;
      opacity: 0.15;
    }
    
    @keyframes pulse {
      0% { opacity: 0.2; }
      50% { opacity: 0.5; }
      100% { opacity: 0.2; }
    }
    
    @keyframes rotate {
      from { transform: rotate(0deg); transform-origin: center; }
      to { transform: rotate(360deg); transform-origin: center; }
    }
    
    @keyframes float {
      0% { transform: translateY(0px); }
      50% { transform: translateY(-5px); }
      100% { transform: translateY(0px); }
    }
    
    .pattern-circle {
      animation: pulse 3s infinite ease-in-out;
    }
    
    .pattern-group {
      animation: rotate 30s infinite linear;
    }
    
    .logo-group {
      animation: float 4s infinite ease-in-out;
    }
    
    .text-bnbx {
      font-family: Arial, sans-serif;
      font-weight: bold;
      fill: #F0B90B;
      font-size: 24px;
    }
  </style>
  
  <!-- Background Patterns -->
  <g class="pattern-group">
    <circle class="pattern-circle" cx="20" cy="25" r="8" />
    <circle class="pattern-circle" cx="180" cy="25" r="10" />
    <circle class="pattern-circle" cx="100" cy="10" r="6" />
    <circle class="pattern-circle" cx="100" cy="40" r="7" />
    <rect class="pattern-square" x="40" y="15" width="10" height="10" rx="2" />
    <rect class="pattern-square" x="150" y="15" width="12" height="12" rx="2" />
    <rect class="pattern-square" x="70" y="30" width="8" height="8" rx="2" />
    <rect class="pattern-square" x="130" y="30" width="9" height="9" rx="2" />
  </g>
  
  <!-- Binance Logo Group -->
  <g class="logo-group">
    <!-- Main Binance Diamond -->
    <g transform="translate(60, 10) scale(0.6)">
      <path class="binance-logo" d="M28.8,0L14.4,14.4L0,28.8L14.4,43.2L28.8,28.8L43.2,14.4L28.8,0z" />
      <path class="binance-logo" d="M28.8,28.8L43.2,43.2L57.6,28.8L43.2,14.4L28.8,28.8z" />
      <path class="binance-logo" d="M14.4,14.4L28.8,28.8L43.2,14.4L28.8,0L14.4,14.4z" />
      <path class="binance-logo" d="M0,28.8L14.4,43.2L28.8,28.8L14.4,14.4L0,28.8z" />
      <path class="binance-logo" d="M28.8,57.6L43.2,43.2L28.8,28.8L14.4,43.2L28.8,57.6z" />
    </g>
    
    <!-- BNBX Text -->
    <text class="text-bnbx" x="110" y="32">BNBX</text>
  </g>
</svg>